<svg class="octicon octicon-star mr-1" aria-hidden="true" data-view-component="true" version="1.1" viewBox="0 0 1000 1000" xmlns="http://www.w3.org/2000/svg">
 <g transform="translate(-1310.3)">
  <g transform="matrix(1.1479 0 0 1.1479 1236.3 -73.951)">
   <circle cx="500" cy="500" r="389.58" fill="#22557b" stroke="#193549" stroke-linecap="round" stroke-linejoin="round" stroke-width="39.202" style="paint-order:normal"/>
   <g transform="translate(3.4846 26.135)" fill="#193549">
    <g transform="translate(1427.3 -436.48)">
     <g stroke="#193549" stroke-linecap="round" stroke-linejoin="round" stroke-width="60">
      <path d="m-1208.1 1211.3 163.17-155.18"/>
      <path d="m-1129.8 911.99 163.17-155.18"/>
      <path d="m-831.32 1030.3 163.17-155.18"/>
      <path d="m-1129.8 911.99 84.79 144.12"/>
      <path d="m-831.32 1030.3-213.65 25.769"/>
     </g>
     <ellipse cx="-1045" cy="1056.1" rx="52.556" ry="52.473" style="paint-order:stroke markers fill"/>
     <ellipse cx="-1129.8" cy="911.99" rx="52.556" ry="52.473" style="paint-order:stroke markers fill"/>
     <ellipse cx="-831.32" cy="1030.3" rx="52.556" ry="52.473" style="paint-order:stroke markers fill"/>
    </g>
    <path transform="matrix(1.0482 .6571 -.65751 1.0481 405.74 -155.09)" d="m294.9 753.23-30.561 52.668-23.215-56.294-59.534-12.79 46.365-39.475-6.2334-60.573 51.87 31.897 55.682-24.646-14.307 59.188 40.647 45.341z" stroke="#193549" stroke-linecap="round" stroke-linejoin="round" stroke-width="25.865" style="paint-order:stroke markers fill"/>
   </g>
   <g fill="#f2970a">
    <g stroke="#f3970a" stroke-linecap="round" stroke-linejoin="round" stroke-width="60">
     <path d="m219.57 774.4 163.17-155.18"/>
     <path d="m297.94 475.11 163.17-155.18"/>
     <path d="m596.39 593.46 163.17-155.18"/>
     <path d="m297.94 475.11 84.79 144.12"/>
     <path d="m596.39 593.46-213.65 25.769"/>
    </g>
    <ellipse cx="382.73" cy="619.23" rx="52.556" ry="52.473" style="paint-order:stroke markers fill"/>
    <ellipse cx="297.94" cy="475.11" rx="52.556" ry="52.473" style="paint-order:stroke markers fill"/>
    <ellipse cx="596.39" cy="593.46" rx="52.556" ry="52.473" style="paint-order:stroke markers fill"/>
   </g>
   <path transform="matrix(1.0482 .6571 -.65751 1.0481 405.74 -155.09)" d="m294.9 753.23-30.561 52.668-23.215-56.294-59.534-12.79 46.365-39.475-6.2334-60.573 51.87 31.897 55.682-24.646-14.307 59.188 40.647 45.341z" fill="#fbc300" stroke="#fbc300" stroke-linecap="round" stroke-linejoin="round" stroke-width="25.865" style="paint-order:stroke markers fill"/>
  </g>
 </g>
</svg>
