<?xml version="1.0" encoding="UTF-8" standalone="no"?>
<svg
   class="octicon octicon-star mr-1"
   aria-hidden="true"
   data-view-component="true"
   version="1.1"
   viewBox="0 0 771 540"
   id="svg1196"
   sodipodi:docname="dmg-background.svg"
   inkscape:version="1.2 (dc2aedaf03, 2022-05-15)"
   xml:space="preserve"
   width="771"
   height="540"
   inkscape:export-filename="dmg-background.png"
   inkscape:export-xdpi="96"
   inkscape:export-ydpi="96"
   xmlns:inkscape="http://www.inkscape.org/namespaces/inkscape"
   xmlns:sodipodi="http://sodipodi.sourceforge.net/DTD/sodipodi-0.dtd"
   xmlns="http://www.w3.org/2000/svg"
   xmlns:svg="http://www.w3.org/2000/svg"><defs
     id="defs1200"><marker
       style="overflow:visible"
       id="Dot"
       refX="0"
       refY="0"
       orient="auto"
       inkscape:stockid="Dot"
       markerWidth="25"
       markerHeight="25"
       viewBox="0 0 5.6666667 5.6666667"
       inkscape:isstock="true"
       inkscape:collect="always"
       preserveAspectRatio="xMidYMid"
       markerUnits="userSpaceOnUse"><path
         transform="scale(0.5)"
         style="fill:context-stroke;fill-rule:evenodd;stroke:context-stroke;stroke-width:1pt"
         d="M 5,0 C 5,2.76 2.76,5 0,5 -2.76,5 -5,2.76 -5,0 c 0,-2.76 2.3,-5 5,-5 2.76,0 5,2.24 5,5 z"
         id="Dot1"
         sodipodi:nodetypes="sssss" /></marker></defs><sodipodi:namedview
     id="namedview1198"
     pagecolor="#22557b"
     bordercolor="#ffffff"
     borderopacity="1"
     inkscape:showpageshadow="0"
     inkscape:pageopacity="1"
     inkscape:pagecheckerboard="1"
     inkscape:deskcolor="#505050"
     showgrid="false"
     inkscape:zoom="1.2020815"
     inkscape:cx="355.63312"
     inkscape:cy="235.42496"
     inkscape:window-width="1920"
     inkscape:window-height="1033"
     inkscape:window-x="1920"
     inkscape:window-y="22"
     inkscape:window-maximized="1"
     inkscape:current-layer="layer1" /><g
     inkscape:groupmode="layer"
     id="layer1"
     inkscape:label="Layer 1"
     style="display:inline"><path
       id="path4983"
       style="opacity:0.1;fill:none;stroke:#193549;stroke-width:10;stroke-linecap:butt;stroke-linejoin:miter;stroke-dasharray:none;stroke-opacity:1;marker-start:url(#Dot);marker-mid:url(#Dot);marker-end:url(#Dot)"
       d="m 0,337.3125 96.375,-96.375 96.375,-96.375 192.75,-192.75 M 192.75,578.25 v -48.1875 l 96.375,-96.375 96.375,-96.375 h 96.375 m 192.75,-96.375 H 578.25 289.125 m 192.75,-96.375 H 578.25 L 674.625,48.1875 771,-48.1875 m -96.375,0 L 385.5,240.9375 M 337.3125,578.25 385.5,530.0625 481.875,433.6875 H 771 l -96.375,96.375 -48.1875,48.1875 M 578.25,433.6875 v -96.375 L 771,144.5625 M 433.6875,578.25 674.625,337.3125 M 481.875,578.25 V 530.0625 M 771,48.1875 674.625,144.5625 385.5,433.6875 289.125,530.0625 240.9375,578.25 M 0,433.6875 96.375,337.3125 H 192.75 L 481.875,48.1875 H 578.25 M 385.5,144.5625 V 48.1875 H 289.125 192.75 L 96.375,144.5625 0,240.9375 m 192.75,96.375 v 96.375 m 96.375,-96.375 -192.75,192.75 L 48.1875,578.25 M 385.5,48.1875 l 96.375,-96.375"
       sodipodi:nodetypes="cccccccccccccccccccccccccccccccccccccccccccccccccccccc" /><g
       id="g2919"
       transform="matrix(0.08309893,0,0,0.08309893,117.12384,22.546721)"><g
         transform="matrix(1.1479,0,0,1.1479,-1230.6541,-272.09175)"
         fill="#193549"
         id="g1168"><g
           transform="translate(1427.3,-436.48)"
           id="g1164"><g
             stroke="#193549"
             stroke-linecap="round"
             stroke-linejoin="round"
             stroke-width="60"
             id="g1156"><path
               d="m -1208.1,1211.3 163.17,-155.18"
               id="path1146" /><path
               d="M -1129.8,911.99 -966.63,756.81"
               id="path1148" /><path
               d="M -831.32,1030.3 -668.15,875.12"
               id="path1150" /><path
               d="m -1129.8,911.99 84.79,144.12"
               id="path1152" /><path
               d="m -831.32,1030.3 -213.65,25.769"
               id="path1154" /></g><ellipse
             cx="-1045"
             cy="1056.1"
             rx="52.556"
             ry="52.473"
             style="paint-order:stroke markers fill"
             id="ellipse1158" /><ellipse
             cx="-1129.8"
             cy="911.98999"
             rx="52.556"
             ry="52.473"
             style="paint-order:stroke markers fill"
             id="ellipse1160" /><ellipse
             cx="-831.32001"
             cy="1030.3"
             rx="52.556"
             ry="52.473"
             style="paint-order:stroke markers fill"
             id="ellipse1162" /></g><path
           transform="matrix(1.0482,0.6571,-0.65751,1.0481,405.74,-155.09)"
           d="m 294.9,753.23 -30.561,52.668 -23.215,-56.294 -59.534,-12.79 46.365,-39.475 -6.2334,-60.573 51.87,31.897 55.682,-24.646 -14.307,59.188 40.647,45.341 z"
           stroke="#193549"
           stroke-linecap="round"
           stroke-linejoin="round"
           stroke-width="25.865"
           style="paint-order:stroke markers fill"
           id="path1166" /></g><g
         fill="#f2970a"
         id="g1188"
         transform="matrix(1.1479,0,0,1.1479,-1234.6541,-302.09212)"><g
           stroke="#f3970a"
           stroke-linecap="round"
           stroke-linejoin="round"
           stroke-width="60"
           id="g1180"><path
             d="M 219.57,774.4 382.74,619.22"
             id="path1170" /><path
             d="M 297.94,475.11 461.11,319.93"
             id="path1172" /><path
             d="M 596.39,593.46 759.56,438.28"
             id="path1174" /><path
             d="m 297.94,475.11 84.79,144.12"
             id="path1176" /><path
             d="M 596.39,593.46 382.74,619.229"
             id="path1178" /></g><ellipse
           cx="382.73001"
           cy="619.22998"
           rx="52.556"
           ry="52.473"
           style="paint-order:stroke markers fill"
           id="ellipse1182" /><ellipse
           cx="297.94"
           cy="475.10999"
           rx="52.556"
           ry="52.473"
           style="paint-order:stroke markers fill"
           id="ellipse1184" /><ellipse
           cx="596.39001"
           cy="593.46002"
           rx="52.556"
           ry="52.473"
           style="paint-order:stroke markers fill"
           id="ellipse1186" /></g><path
         d="m -982.57764,648.5403 -76.52336,40.3139 14.5553,-85.23883 -61.9797,-60.29343 85.5817,-12.5205 38.21758,-77.57798 38.33703,77.50049 85.5999,12.34816 -61.88708,60.41835 14.68626,85.20982 z"
         fill="#fbc300"
         stroke="#fbc300"
         stroke-linecap="round"
         stroke-linejoin="round"
         stroke-width="36.7331"
         style="paint-order:stroke markers fill"
         id="path1190" /></g><g
       aria-label="gittyUp"
       transform="scale(0.99800229,1.0020017)"
       id="text2067"
       style="font-size:37.9638px;line-height:1.25;font-family:Inter;-inkscape-font-specification:Inter;fill:#f2970a;stroke-width:0.949096"><path
         d="m 99.777212,54.091601 1.284928,4.010535 q -1.168116,0.408841 -2.647731,0.584058 -1.460146,0.155749 -3.329133,0.155749 1.888456,0.817682 2.861886,2.083142 0.9929,1.26546 0.9929,3.173384 0,2.005268 -1.031837,3.582225 -1.012368,1.55749 -2.900824,2.472514 -1.868987,0.895557 -4.458312,0.895557 -1.479615,0 -2.628263,-0.29203 -0.817682,0.486716 -0.817682,1.460147 0,0.564589 0.447778,0.992899 0.467247,0.428309 1.985799,0.428309 h 3.50435 q 2.277828,0 3.991066,0.778745 1.732707,0.759276 2.686669,2.083142 0.973434,1.304397 0.973434,2.978698 0,3.114978 -2.706141,4.867153 -2.706137,1.752176 -7.904257,1.752176 -3.718505,0 -5.801647,-0.759276 -2.063673,-0.759276 -2.900824,-2.219422 -0.83715,-1.440678 -0.83715,-3.484882 h 4.575124 q 0,0.992899 0.389373,1.635363 0.40884,0.661933 1.499083,0.953962 1.090242,0.311498 3.173384,0.311498 3.09551,0 4.244158,-0.739807 1.148648,-0.720339 1.148648,-1.96633 0,-1.109711 -0.934493,-1.732707 -0.934494,-0.622995 -2.647732,-0.622995 h -3.407007 q -3.114979,0 -4.536188,-1.207055 -1.421208,-1.207054 -1.421208,-2.822949 0,-1.090242 0.584058,-2.083141 0.603527,-1.012368 1.713238,-1.713239 -1.907924,-1.012368 -2.764543,-2.414108 -0.837151,-1.421209 -0.837151,-3.426476 0,-2.238891 1.12918,-3.893723 1.12918,-1.654832 3.134447,-2.569857 2.005267,-0.915025 4.614062,-0.915025 2.394639,0.01947 4.06894,-0.292029 1.69377,-0.311498 2.978698,-0.856619 1.304397,-0.545121 2.53092,-1.187586 z m -9.481215,5.76271 q -1.83005,0 -2.803481,1.070774 -0.953962,1.070774 -0.953962,2.842418 0,1.83005 0.973431,2.900823 0.992899,1.070774 2.80348,1.070774 3.621163,0 3.621163,-4.030003 0,-3.854786 -3.640631,-3.854786 z"
         style="font-weight:600;font-family:'Fira Code';-inkscape-font-specification:'Fira Code, Semi-Bold'"
         id="path4580" /><path
         d="m 113.89197,46.596185 q 1.40174,0 2.2973,0.876087 0.89556,0.876088 0.89556,2.180485 0,1.304397 -0.89556,2.199954 -0.89556,0.876087 -2.2973,0.876087 -1.4212,0 -2.31676,-0.876087 -0.89556,-0.895557 -0.89556,-2.199954 0,-1.304397 0.89556,-2.180485 0.89556,-0.876087 2.31676,-0.876087 z m 3.32914,10.39624 v 16.976632 h 5.43174 v 3.640631 h -16.60673 v -3.640631 h 6.03527 V 60.633056 h -5.84058 v -3.640631 z"
         style="font-weight:600;font-family:'Fira Code';-inkscape-font-specification:'Fira Code, Semi-Bold'"
         id="path4582" /><path
         d="m 146.52139,76.46104 q -1.14865,0.759276 -2.78401,1.245991 -1.63537,0.486715 -3.54329,0.486715 -3.77691,0 -5.68484,-1.946861 -1.90792,-1.96633 -1.90792,-5.217589 v -10.39624 h -4.47778 v -3.640631 h 4.47778 v -4.536187 l 5.13971,-0.622996 v 5.159183 h 6.81402 l -0.52565,3.640631 h -6.28837 v 10.376771 q 0,1.596427 0.77875,2.336234 0.77874,0.739808 2.51145,0.739808 1.10971,0 2.02474,-0.253092 0.93449,-0.272561 1.69377,-0.681402 z"
         style="font-weight:600;font-family:'Fira Code';-inkscape-font-specification:'Fira Code, Semi-Bold'"
         id="path4584" /><path
         d="m 169.88375,76.46104 q -1.14865,0.759276 -2.78401,1.245991 -1.63537,0.486715 -3.54329,0.486715 -3.77691,0 -5.68484,-1.946861 -1.90792,-1.96633 -1.90792,-5.217589 v -10.39624 h -4.47778 v -3.640631 h 4.47778 v -4.536187 l 5.13971,-0.622996 v 5.159183 h 6.81402 l -0.52566,3.640631 h -6.28836 v 10.376771 q 0,1.596427 0.77875,2.336234 0.77874,0.739808 2.51145,0.739808 1.10971,0 2.02473,-0.253092 0.9345,-0.272561 1.69377,-0.681402 z"
         style="font-weight:600;font-family:'Fira Code';-inkscape-font-specification:'Fira Code, Semi-Bold'"
         id="path4586" /><path
         d="m 194.12219,56.992425 -6.98924,20.6562 q -1.26546,3.776911 -3.75744,5.957396 -2.49198,2.199954 -6.96976,2.511451 l -0.64247,-3.718505 q 2.06367,-0.292029 3.30967,-0.876088 1.26546,-0.584058 2.00526,-1.53802 0.75928,-0.953962 1.3044,-2.375171 h -1.75217 l -6.75561,-20.617263 h 5.43174 l 4.67247,17.190787 4.86715,-17.190787 z"
         style="font-weight:600;font-family:'Fira Code';-inkscape-font-specification:'Fira Code, Semi-Bold'"
         id="path4588" /><path
         d="m 216.99782,50.684594 v 18.008468 q 0,2.745075 -1.10971,4.906091 -1.10971,2.141548 -3.27073,3.368071 -2.14155,1.226522 -5.27599,1.226522 -3.15392,0 -5.29547,-1.187585 -2.14154,-1.207054 -3.23179,-3.348602 -1.09024,-2.141548 -1.09024,-4.964497 V 50.684594 h 5.3344 v 16.509385 q 0,3.445945 0.9345,5.178651 0.93449,1.713239 3.3486,1.713239 2.43357,0 3.36807,-1.713239 0.93449,-1.732706 0.93449,-5.178651 V 50.684594 Z"
         style="font-weight:600;font-family:'Fira Code';-inkscape-font-specification:'Fira Code, Semi-Bold'"
         id="path4590" /><path
         d="m 232.82583,56.408366 q 2.70614,0 4.36097,1.343335 1.65483,1.323866 2.39464,3.776911 0.75928,2.433577 0.75928,5.723773 0,3.173384 -0.91503,5.645898 -0.91502,2.472514 -2.68667,3.893723 -1.75217,1.40174 -4.32203,1.40174 -3.15391,0 -5.10078,-2.23889 v 9.598027 l -5.13971,0.545121 V 56.992425 h 4.51672 l 0.27256,2.511451 q 1.20705,-1.596426 2.72561,-2.336234 1.53802,-0.759276 3.13444,-0.759276 z m -1.49908,3.854786 q -1.3044,0 -2.2973,0.778745 -0.97343,0.778744 -1.71324,1.927393 v 9.228123 q 1.42121,2.10261 3.62117,2.10261 1.96633,0 2.99816,-1.635363 1.05131,-1.654833 1.05131,-5.353869 0,-3.913192 -0.93449,-5.470681 -0.9345,-1.576958 -2.72561,-1.576958 z"
         style="font-weight:600;font-family:'Fira Code';-inkscape-font-specification:'Fira Code, Semi-Bold'"
         id="path4592" /></g></g><g
     id="g1400"
     style="fill:#f2970a;fill-opacity:1"
     transform="translate(1.5,-4.49998)"><path
       style="fill:#f2970a;fill-opacity:1;stroke:none;stroke-width:1px;stroke-linecap:butt;stroke-linejoin:miter;stroke-opacity:1"
       d="m 395,248.99996 c 8.50001,14.72244 8.50001,36.2776 0,51.00004 l 65,-25.5 z"
       id="path725"
       sodipodi:nodetypes="cccc" /><path
       style="fill:none;fill-opacity:1;stroke:#f2970a;stroke-width:6;stroke-linecap:butt;stroke-linejoin:miter;stroke-dasharray:none;stroke-opacity:1"
       d="M 410,274.5 H 308"
       id="path829"
       sodipodi:nodetypes="cc" /></g></svg>
