<?xml version="1.0" encoding="UTF-8" ?>
<svg xmlns="http://www.w3.org/2000/svg" version="1.1" width="64" height="64">
  <rect x="3" y="3" width="60" height="60" rx="6" ry="6" fill="darkgray" />
  <rect x="1" y="1" width="60" height="60" rx="6" ry="6" fill="slategray"
        stroke-width="1" stroke="darkslategray" />
  <g transform="rotate(45 30 30)">
    <path d="M 27 50 L 27 24 C 27 16, 11 24, 13 24 C 11 22, 19 16, 23 16
             L 35 16 C 35 19, 41 19, 41 16 L 45 16 L 45 24 L 41 24
             C 41 21, 35 21, 35 24 L 35 50 C 35 53, 27 53, 27 50" fill="white" />
    <rect x="29" y="26" width="4" height="24" fill="slategray"/>
  </g>
</svg>
